<svg xmlns="http://www.w3.org/2000/svg" viewBox="0 0 480 270" role="img" aria-label="攻略缩略图：900 个呀哈哈">
  <defs>
    <linearGradient id="bg4" x1="0" y1="0" x2="1" y2="1">
      <stop offset="0" stop-color="#356b2d"/>
      <stop offset="1" stop-color="#1c3a18"/>
    </linearGradient>
  </defs>
  <rect width="480" height="270" fill="url(#bg4)"/>
  <ellipse cx="240" cy="120" rx="120" ry="110" fill="#bfe6a8" opacity="0.12"/>
  <!-- 呀哈哈（克洛格种子） -->
  <g transform="translate(240,115)">
    <path d="M0 -34 C26 -34 34 -10 30 14 C26 38 -26 38 -30 14 C-34 -10 -26 -34 0 -34 Z" fill="#6b4a2a"/>
    <path d="M0 -34 C16 -34 22 -20 18 0 C12 18 -12 18 -18 0 C-22 -20 -16 -34 0 -34 Z" fill="#8a6a40"/>
    <circle cx="-9" cy="-4" r="6" fill="#1c120a"/>
    <circle cx="9" cy="-4" r="6" fill="#1c120a"/>
    <path d="M0 -16 C2 -26 14 -30 20 -22 C12 -18 6 -16 0 -16 Z" fill="#5aa84b"/>
    <path d="M0 -16 C-2 -26 -14 -30 -20 -22 C-12 -18 -6 -16 0 -16 Z" fill="#5aa84b"/>
  </g>
  <rect x="0" y="206" width="480" height="64" fill="#102318" opacity="0.85"/>
  <text x="240" y="234" text-anchor="middle" font-family="'PingFang SC','Microsoft YaHei',sans-serif" font-size="18" font-weight="700" fill="#f7f3e6">900 个呀哈哈</text>
  <text x="240" y="256" text-anchor="middle" font-family="'PingFang SC','Microsoft YaHei',sans-serif" font-size="12" fill="#cbb98a">900 Korok Seeds</text>
</svg>
